<?xml version="1.0" encoding="UTF-8"?><svg id="_层_2" xmlns="http://www.w3.org/2000/svg" viewBox="0 0 168.82 174.51"><defs><style>.cls-1,.cls-2{fill:none;stroke:#2e3192;stroke-miterlimit:10;stroke-width:6px;}.cls-2{fill-rule:evenodd;}</style></defs><g id="_层_1-2"><g><polygon class="cls-2" points="11.95 84.11 85.11 83.89 48.34 147.13 11.95 84.11 11.95 84.11"/><path class="cls-2" d="M30.39,84.06c7.46-.02,14.92-.09,22.38-.07,5.39,9.22,10.99,18.32,16.22,27.63-3.63,6.33-7.31,12.63-11,18.92-9.22-15.48-18.39-30.99-27.6-46.48h0Z"/><polygon class="cls-2" points="121.12 146.71 85.08 83.89 157.5 83.69 121.12 146.71 121.12 146.71"/><polygon class="cls-2" points="121.48 21.17 85.1 83.91 48.71 21.17 121.48 21.17 121.48 21.17"/><line class="cls-1" x1="16.91" y1="158.57" x2="16.91" y2="168.89"/><line class="cls-1" x1="32.03" y1="158.57" x2="32.03" y2="168.89"/><line class="cls-1" x1="47.14" y1="158.57" x2="47.14" y2="168.89"/><line class="cls-1" x1="62.26" y1="158.57" x2="62.26" y2="168.89"/><line class="cls-1" x1="77.37" y1="158.57" x2="77.37" y2="168.89"/><line class="cls-1" x1="92.49" y1="158.57" x2="92.49" y2="168.89"/><line class="cls-1" x1="107.6" y1="158.57" x2="107.6" y2="168.89"/><line class="cls-1" x1="122.72" y1="158.57" x2="122.72" y2="168.89"/><line class="cls-1" x1="137.84" y1="158.57" x2="137.84" y2="168.89"/><line class="cls-1" x1="152.95" y1="158.57" x2="152.95" y2="168.89"/><line class="cls-1" x1="4.82" y1="156.04" x2="165.82" y2="156.04"/><line class="cls-1" x1="17.03" y1="5.52" x2="17.03" y2="15.85"/><line class="cls-1" x1="32.14" y1="5.52" x2="32.14" y2="15.85"/><line class="cls-1" x1="47.26" y1="5.52" x2="47.26" y2="15.85"/><line class="cls-1" x1="62.38" y1="5.37" x2="62.38" y2="15.85"/><line class="cls-1" x1="77.49" y1="5.52" x2="77.49" y2="15.85"/><line class="cls-1" x1="92.61" y1="5.52" x2="92.61" y2="15.85"/><line class="cls-1" x1="107.72" y1="5.52" x2="107.72" y2="15.85"/><line class="cls-1" x1="122.84" y1="5.52" x2="122.84" y2="15.85"/><line class="cls-1" x1="137.95" y1="5.52" x2="137.95" y2="15.85"/><line class="cls-1" x1="153.07" y1="5.52" x2="153.07" y2="15.85"/><line class="cls-1" x1="3.82" y1="18.46" x2="165.82" y2="18.46"/><path class="cls-2" d="M111.37,128.55c.45,.77,.9,1.53,1.35,2.3,9.25-15.52,18.82-31.43,28.12-47.03-2.56-.02-5.13-.05-7.7-.06"/><rect class="cls-1" x="3" y="3" width="162.82" height="168.51" rx="10" ry="10"/></g></g></svg>